<svg xmlns="http://www.w3.org/2000/svg" viewBox="0 0 540.00001 160" height="160" width="540"><defs><marker id="a" orient="auto" overflow="visible"><path d="M-5.23-2.42L1.323-.01-5.23 2.4c1.046-1.422 1.04-3.37 0-4.82z" fill="#ff6634" fill-rule="evenodd" stroke="#ff6634" stroke-width=".375" stroke-linejoin="round"/></marker><marker id="b" orient="auto" overflow="visible"><path d="M-5.23-2.42L1.323-.01-5.23 2.4c1.046-1.422 1.04-3.37 0-4.82z" fill="#ff6634" fill-rule="evenodd" stroke="#ff6634" stroke-width=".375" stroke-linejoin="round"/></marker><marker id="c" orient="auto" overflow="visible"><path d="M-5.23-2.42L1.323-.01-5.23 2.4c1.046-1.422 1.04-3.37 0-4.82z" fill="#ff6634" fill-rule="evenodd" stroke="#ff6634" stroke-width=".375" stroke-linejoin="round"/></marker><marker id="d" orient="auto" overflow="visible"><path d="M-5.23-2.42L1.323-.01-5.23 2.4c1.046-1.422 1.04-3.37 0-4.82z" fill="#ff6634" fill-rule="evenodd" stroke="#ff6634" stroke-width=".375" stroke-linejoin="round"/></marker></defs><path fill="#f92672" stroke="#f92672" stroke-width="4.683" stroke-linejoin="round" d="M432.34 102.34h95.318v45.318H432.34z"/><text style="line-height:125%;text-align:center" x="39.823" y="1005.71" font-size="12.289" font-family="sans-serif" letter-spacing="0" word-spacing="0" text-anchor="middle" fill="#fff" transform="translate(440.357 -876.29)"><tspan x="39.823" y="1005.71">View</tspan></text><path d="M200 927.362v65" fill="none" stroke="#ff6634" marker-end="url(#a)" transform="translate(0 -892.362)"/><path fill="#ae81ff" stroke="#ae81ff" stroke-width="4.683" stroke-linejoin="round" d="M152.34 102.34h95.318v45.318H152.34z"/><text style="line-height:125%;-inkscape-font-specification:'sans-serif, Normal';text-align:center" x="218.943" y="944.023" font-size="12.289" font-family="sans-serif" letter-spacing="0" word-spacing="0" text-anchor="middle" fill="#fff" transform="translate(-19.56 -815.59)"><tspan x="218.943" y="944.023">Dispatcher</tspan></text><path fill="#66d9ef" stroke="#66d9ef" stroke-width="4.683" stroke-linejoin="round" d="M12.34 102.34h95.318v45.318H12.34z"/><text style="line-height:125%;-inkscape-font-specification:'sans-serif, Normal';text-align:center" x="109.823" y="951.184" font-size="12.289" font-family="sans-serif" letter-spacing="0" word-spacing="0" text-anchor="middle" fill="#fff" transform="translate(-49.37 -821.78)"><tspan y="951.184" x="109.823">Action</tspan></text><path fill="#a6e22e" stroke="#a6e22e" stroke-width="4.683" stroke-linejoin="round" d="M292.342 102.342h95.317v45.317H292.34z"/><text style="line-height:125%;-inkscape-font-specification:'sans-serif, Normal';text-align:center" x="244.611" y="853.173" font-size="12.289" font-family="sans-serif" letter-spacing="0" word-spacing="0" text-anchor="middle" fill="#fff" transform="translate(95.287 -723.717)"><tspan x="244.611" y="853.173">Store</tspan></text><path d="M480 100V35" fill="none" stroke="#ff6634"/><path d="M110 1017.362h40" fill="none" stroke="#ff6634" marker-end="url(#b)" transform="translate(0 -892.362)"/><path d="M250 1017.362h40" fill="none" stroke="#ff6634" marker-end="url(#c)" transform="translate(0 -892.362)"/><path d="M390 1017.362h40" fill="none" stroke="#ff6634" marker-end="url(#d)" transform="translate(0 -892.362)"/><g><path fill="#66d9ef" stroke="#66d9ef" stroke-width="4.683" stroke-linejoin="round" d="M292.34 12.34h95.318V57.66H292.34z"/><text style="line-height:125%;-inkscape-font-specification:'sans-serif, Normal';text-align:center" x="109.823" y="951.184" font-size="12.289" font-family="sans-serif" letter-spacing="0" word-spacing="0" text-anchor="middle" fill="#fff" transform="translate(230.63 -911.78)"><tspan y="951.184" x="109.823">Action</tspan></text></g><path d="M390 35h90M200 35h90" fill="none" stroke="#ff6634"/></svg>